<svg width="19" height="20" viewBox="0 0 19 20" fill="none" xmlns="http://www.w3.org/2000/svg">
<path d="M17.3407 13.2416C16.8106 14.4954 15.9814 15.6001 14.9256 16.4594C13.8698 17.3186 12.6197 17.9061 11.2844 18.1706C9.94912 18.4351 8.56939 18.3684 7.26582 17.9765C5.96226 17.5845 4.77456 16.8792 3.80655 15.9222C2.83855 14.9652 2.11971 13.7856 1.7129 12.4866C1.30608 11.1876 1.22367 9.8087 1.47287 8.47049C1.72206 7.13228 2.29528 5.87548 3.14241 4.80998C3.98953 3.74449 5.08477 2.90272 6.33237 2.35829M17.999 9.99996C17.999 8.90561 17.7835 7.82198 17.3647 6.81093C16.9459 5.79988 16.3321 4.88122 15.5583 4.1074C14.7844 3.33358 13.8658 2.71975 12.8547 2.30096C11.8437 1.88217 10.76 1.66663 9.6657 1.66663V9.99996H17.999Z" stroke="#667085" stroke-width="1.67" stroke-linecap="round" stroke-linejoin="round"/>
</svg>
